<svg xmlns="http://www.w3.org/2000/svg" viewBox="0 0 721.85 283.02"><defs><style>.cls-1{opacity:0.2;}.cls-2{fill:#00abb9;}</style></defs><title>Asset 8</title><g id="Layer_2" data-name="Layer 2"><g id="Layer_1-2" data-name="Layer 1"><g class="cls-1"><path class="cls-2" d="M610.18,181.5a4.88,4.88,0,0,1-3.6-1.46l-25.73-25.73a5.11,5.11,0,0,1,0-7.15l3-3a5.06,5.06,0,0,1,7.19,0l11.58,11.58V128a4.21,4.21,0,0,1,1.48-3.34,5.29,5.29,0,0,1,3.58-1.28h5.06a5.29,5.29,0,0,1,3.58,1.28,4.22,4.22,0,0,1,1.48,3.34v27.82l11.62-11.58a5,5,0,0,1,7.11,0l3,3a5,5,0,0,1,0,7.15L613.74,180A4.67,4.67,0,0,1,610.18,181.5Z"/></g><g class="cls-1"><path class="cls-2" d="M548.61,97.27a4.88,4.88,0,0,1-3.6-1.46L519.29,70.08a5.11,5.11,0,0,1,0-7.15l3-3a5.06,5.06,0,0,1,7.19,0L541,71.54V43.72a4.21,4.21,0,0,1,1.48-3.34,5.29,5.29,0,0,1,3.58-1.28h5.06a5.29,5.29,0,0,1,3.58,1.28,4.22,4.22,0,0,1,1.48,3.34V71.54L567.82,60a5,5,0,0,1,7.11,0l3,3a5,5,0,0,1,0,7.15L552.17,95.81A4.67,4.67,0,0,1,548.61,97.27Z"/></g><g class="cls-1"><path class="cls-2" d="M391.29,155.78l11.62-11.58a5,5,0,0,1,7.11,0l3,3a5,5,0,0,1,0,7.15L387.26,180a4.67,4.67,0,0,1-3.55,1.46,4.88,4.88,0,0,1-3.6-1.46l-25.73-25.73a5.11,5.11,0,0,1,0-7.15l3-3a5.06,5.06,0,0,1,7.19,0l11.58,11.58V128a4.21,4.21,0,0,1,1.48-3.34,5.29,5.29,0,0,1,3.58-1.28h5.06a5.29,5.29,0,0,1,3.58,1.28,4.22,4.22,0,0,1,1.48,3.34v27.82"/></g><g class="cls-1"><path class="cls-2" d="M366.29,79.58,377.91,68A5,5,0,0,1,385,68l3,3a5,5,0,0,1,0,7.15l-25.73,25.73a4.67,4.67,0,0,1-3.55,1.46,4.88,4.88,0,0,1-3.6-1.46L329.38,78.12a5.11,5.11,0,0,1,0-7.15l3-3a5.06,5.06,0,0,1,7.19,0l11.58,11.58V51.76a4.21,4.21,0,0,1,1.48-3.34,5.29,5.29,0,0,1,3.58-1.28h5.06a5.29,5.29,0,0,1,3.58,1.28,4.22,4.22,0,0,1,1.48,3.34V79.58"/></g><g class="cls-1"><path class="cls-2" d="M698.63,32.45l11.62-11.58a5,5,0,0,1,7.11,0l3,3a5,5,0,0,1,0,7.15L694.6,56.71A4.67,4.67,0,0,1,691,58.18a4.88,4.88,0,0,1-3.6-1.46L661.72,31a5.11,5.11,0,0,1,0-7.15l3-3a5.06,5.06,0,0,1,7.19,0l11.58,11.58V4.62a4.21,4.21,0,0,1,1.48-3.34A5.29,5.29,0,0,1,688.51,0h5.06a5.29,5.29,0,0,1,3.58,1.28,4.22,4.22,0,0,1,1.48,3.34V32.45"/></g><g class="cls-1"><path class="cls-2" d="M157.23,181.5a4.88,4.88,0,0,1-3.6-1.46l-25.73-25.73a5.11,5.11,0,0,1,0-7.15l3-3a5.06,5.06,0,0,1,7.19,0l11.58,11.58V128a4.21,4.21,0,0,1,1.48-3.34,5.29,5.29,0,0,1,3.58-1.28h5.06a5.29,5.29,0,0,1,3.58,1.28,4.22,4.22,0,0,1,1.48,3.34v27.82l11.62-11.58a5,5,0,0,1,7.11,0l3,3a5,5,0,0,1,0,7.15L160.78,180A4.67,4.67,0,0,1,157.23,181.5Z"/></g><g class="cls-1"><path class="cls-2" d="M30.79,193.5a4.88,4.88,0,0,1-3.6-1.46L1.46,166.31a5.11,5.11,0,0,1,0-7.15l3-3a4.91,4.91,0,0,1,3.6-1.5,4.91,4.91,0,0,1,3.6,1.5L23.2,167.78V140a4.21,4.21,0,0,1,1.48-3.34,5.29,5.29,0,0,1,3.58-1.28h5.06a5.29,5.29,0,0,1,3.58,1.28A4.22,4.22,0,0,1,38.37,140v27.82L50,156.19a5,5,0,0,1,7.11,0l3,3a5,5,0,0,1,0,7.15L34.34,192A4.67,4.67,0,0,1,30.79,193.5Z"/></g><g class="cls-1"><path class="cls-2" d="M344.12,268a4.88,4.88,0,0,1-3.6-1.46L314.8,240.76a5.11,5.11,0,0,1,0-7.15l3-3a5.06,5.06,0,0,1,7.19,0l11.58,11.58V214.4a4.21,4.21,0,0,1,1.48-3.34,5.29,5.29,0,0,1,3.58-1.28h5.06a5.29,5.29,0,0,1,3.58,1.28,4.22,4.22,0,0,1,1.48,3.34v27.82l11.62-11.58a5,5,0,0,1,7.11,0l3,3a5,5,0,0,1,0,7.15l-25.73,25.73A4.67,4.67,0,0,1,344.12,268Z"/></g><g class="cls-1"><path class="cls-2" d="M545.5,252.69a4.88,4.88,0,0,1-3.6-1.46L516.18,225.5a5.11,5.11,0,0,1,0-7.15l3-3a5.06,5.06,0,0,1,7.19,0L537.91,227V199.14a4.21,4.21,0,0,1,1.48-3.34,5.29,5.29,0,0,1,3.58-1.28H548a5.29,5.29,0,0,1,3.58,1.28,4.22,4.22,0,0,1,1.48,3.34V227l11.62-11.58a5,5,0,0,1,7.11,0l3,3a5,5,0,0,1,0,7.15l-25.73,25.73A4.67,4.67,0,0,1,545.5,252.69Z"/></g><g class="cls-1"><path class="cls-2" d="M506.44,238.87a8.91,8.91,0,0,1-6.56-2.67l-46.93-46.93a9.31,9.31,0,0,1,0-13.05l5.41-5.41a9.23,9.23,0,0,1,13.12,0l21.13,21.13V141.18a7.68,7.68,0,0,1,2.7-6.09,9.65,9.65,0,0,1,6.52-2.34h9.23a9.65,9.65,0,0,1,6.53,2.34,7.7,7.7,0,0,1,2.7,6.09v50.76l21.2-21.13a9.06,9.06,0,0,1,13,0l5.41,5.41a9.13,9.13,0,0,1,0,13.05L512.93,236.2A8.52,8.52,0,0,1,506.44,238.87Z"/></g><g class="cls-1"><path class="cls-2" d="M674.35,127.61a7.54,7.54,0,0,1-5.55-2.26l-39.7-39.7a7.88,7.88,0,0,1,0-11L633.67,70a7.81,7.81,0,0,1,11.1,0l17.87,17.87V45a6.5,6.5,0,0,1,2.28-5.15,8.16,8.16,0,0,1,5.52-2h7.81a8.17,8.17,0,0,1,5.52,2A6.51,6.51,0,0,1,686.05,45V87.91L704,70a7.66,7.66,0,0,1,11,0l4.57,4.57a7.72,7.72,0,0,1,0,11l-39.7,39.7A7.21,7.21,0,0,1,674.35,127.61Z"/></g><g class="cls-1"><path class="cls-2" d="M226.36,150.8a7.84,7.84,0,0,1-5.77-2.35l-41.3-41.3a8.2,8.2,0,0,1,0-11.49L184,90.91a8.12,8.12,0,0,1,11.55,0l18.59,18.59V64.83a6.76,6.76,0,0,1,2.38-5.36,8.49,8.49,0,0,1,5.74-2.06h8.12a8.49,8.49,0,0,1,5.75,2.06,6.78,6.78,0,0,1,2.38,5.36V109.5l18.65-18.59a8,8,0,0,1,11.42,0l4.76,4.76a8,8,0,0,1,0,11.49l-41.3,41.3A7.5,7.5,0,0,1,226.36,150.8Z"/></g><g class="cls-1"><path class="cls-2" d="M130.86,283a8.91,8.91,0,0,1-6.56-2.67L77.37,233.42a9.31,9.31,0,0,1,0-13.05L82.77,215a9.23,9.23,0,0,1,13.12,0L117,236.09V185.33a7.68,7.68,0,0,1,2.7-6.09,9.65,9.65,0,0,1,6.52-2.34h9.23a9.65,9.65,0,0,1,6.53,2.34,7.7,7.7,0,0,1,2.7,6.09v50.76L165.9,215a9.06,9.06,0,0,1,13,0l5.41,5.41a9.13,9.13,0,0,1,0,13.05l-46.93,46.93A8.52,8.52,0,0,1,130.86,283Z"/></g><g class="cls-1"><path class="cls-2" d="M414.49,176.9a2.72,2.72,0,0,1-2-.82l-14.35-14.35a2.85,2.85,0,0,1,0-4l1.65-1.65a2.82,2.82,0,0,1,4,0l6.46,6.46V147a2.35,2.35,0,0,1,.83-1.86,3,3,0,0,1,2-.72h2.82a3,3,0,0,1,2,.72,2.35,2.35,0,0,1,.83,1.86v15.52l6.48-6.46a2.77,2.77,0,0,1,4,0l1.65,1.65a2.79,2.79,0,0,1,0,4l-14.35,14.35A2.6,2.6,0,0,1,414.49,176.9Z"/></g><g class="cls-1"><path class="cls-2" d="M254.81,145.18a2.72,2.72,0,0,1-2-.82L238.45,130a2.85,2.85,0,0,1,0-4l1.65-1.65a2.82,2.82,0,0,1,4,0l6.46,6.46V115.31a2.35,2.35,0,0,1,.83-1.86,3,3,0,0,1,2-.72h2.82a3,3,0,0,1,2,.72,2.35,2.35,0,0,1,.83,1.86v15.52l6.48-6.46a2.77,2.77,0,0,1,4,0l1.65,1.65a2.79,2.79,0,0,1,0,4l-14.35,14.35A2.6,2.6,0,0,1,254.81,145.18Z"/></g><g class="cls-1"><path class="cls-2" d="M100.39,145.18a2.72,2.72,0,0,1-2-.82L84,130a2.85,2.85,0,0,1,0-4l1.65-1.65a2.82,2.82,0,0,1,4,0l6.46,6.46V115.31a2.35,2.35,0,0,1,.83-1.86,3,3,0,0,1,2-.72h2.82a3,3,0,0,1,2,.72,2.35,2.35,0,0,1,.83,1.86v15.52l6.48-6.46a2.77,2.77,0,0,1,4,0l1.65,1.65a2.79,2.79,0,0,1,0,4l-14.35,14.35A2.6,2.6,0,0,1,100.39,145.18Z"/></g><g class="cls-1"><path class="cls-2" d="M660.25,224.16a2.72,2.72,0,0,1-2-.82L643.9,209a2.85,2.85,0,0,1,0-4l1.65-1.65a2.82,2.82,0,0,1,4,0l6.46,6.46V194.29a2.35,2.35,0,0,1,.83-1.86,3,3,0,0,1,2-.72h2.82a3,3,0,0,1,2,.72,2.35,2.35,0,0,1,.83,1.86v15.52l6.48-6.46a2.77,2.77,0,0,1,4,0l1.65,1.65a2.79,2.79,0,0,1,0,4l-14.35,14.35A2.6,2.6,0,0,1,660.25,224.16Z"/></g><g class="cls-1"><path class="cls-2" d="M431.67,69.06a2.72,2.72,0,0,1-2-.82L415.31,53.9a2.85,2.85,0,0,1,0-4L417,48.25a2.82,2.82,0,0,1,4,0l6.46,6.46V39.19a2.35,2.35,0,0,1,.83-1.86,3,3,0,0,1,2-.72h2.82a3,3,0,0,1,2,.72,2.35,2.35,0,0,1,.83,1.86V54.71l6.48-6.46a2.77,2.77,0,0,1,4,0L448,49.9a2.79,2.79,0,0,1,0,4L433.65,68.25A2.6,2.6,0,0,1,431.67,69.06Z"/></g><g class="cls-1"><path class="cls-2" d="M509.55,139a2.72,2.72,0,0,1-2-.82L493.2,123.8a2.85,2.85,0,0,1,0-4l1.65-1.65a2.82,2.82,0,0,1,4,0l6.46,6.46V109.09a2.35,2.35,0,0,1,.83-1.86,3,3,0,0,1,2-.72H511a3,3,0,0,1,2,.72,2.35,2.35,0,0,1,.83,1.86v15.52l6.48-6.46a2.77,2.77,0,0,1,4,0l1.65,1.65a2.79,2.79,0,0,1,0,4l-14.35,14.35A2.6,2.6,0,0,1,509.55,139Z"/></g><g class="cls-1"><path class="cls-2" d="M283.83,234.17a2.72,2.72,0,0,1-2-.82L267.47,219a2.85,2.85,0,0,1,0-4l1.65-1.65a2.82,2.82,0,0,1,4,0l6.46,6.46V204.3a2.35,2.35,0,0,1,.83-1.86,3,3,0,0,1,2-.72h2.82a3,3,0,0,1,2,.72,2.35,2.35,0,0,1,.83,1.86v15.52l6.48-6.46a2.77,2.77,0,0,1,4,0l1.65,1.65a2.79,2.79,0,0,1,0,4l-14.35,14.35A2.6,2.6,0,0,1,283.83,234.17Z"/></g><g class="cls-1"><path class="cls-2" d="M73.8,241.14a2.72,2.72,0,0,1-2-.82L57.45,226a2.85,2.85,0,0,1,0-4l1.65-1.65a2.82,2.82,0,0,1,4,0l6.46,6.46V211.27a2.35,2.35,0,0,1,.83-1.86,3,3,0,0,1,2-.72h2.82a3,3,0,0,1,2,.72,2.35,2.35,0,0,1,.83,1.86v15.52l6.48-6.46a2.77,2.77,0,0,1,4,0L90.13,222a2.79,2.79,0,0,1,0,4L75.78,240.33A2.6,2.6,0,0,1,73.8,241.14Z"/></g></g></g></svg>