<svg xmlns="http://www.w3.org/2000/svg" viewBox="0 0 76.86 76.86"><defs><style>.cls-1{fill:#fff;}.cls-2{fill:none;}</style></defs><title>Asset 8</title><g id="Layer_2" data-name="Layer 2"><g id="Layer_1-2" data-name="Layer 1"><path class="cls-1" d="M17.62,27.89a1.15,1.15,0,1,0,2.29-.26l-2.29-21,4.54-.76L26.94,28a1.15,1.15,0,0,0,1.13.91l.24,0a1.15,1.15,0,0,0,.88-1.37L24.42,5.46a2.3,2.3,0,0,0-2.67-1.87l-4.54.8a2.27,2.27,0,0,0-1.48,1A2.21,2.21,0,0,0,15.34,7Zm7.7,12.18a1.14,1.14,0,0,0-1.15,1.15c0,.35,0,8.67,4.41,13a7.65,7.65,0,0,0,5.54,2.39A9.56,9.56,0,0,0,39,55.21s0-.06.08-.08.07,0,.09-.07,0-.06.06-.09l.09-.08a8.25,8.25,0,0,0-1-10.41C34,40.12,25.67,40.07,25.32,40.07ZM38,52.29l-7-7a1.15,1.15,0,0,0-1.63,1.63l7,7a6.55,6.55,0,0,1-2.26.42,5.41,5.41,0,0,1-3.92-1.71c-2.79-2.79-3.49-7.87-3.67-10.19,2.32.18,7.4.88,10.19,3.68A5.64,5.64,0,0,1,38,52.29ZM51.38,40.07h0a25.06,25.06,0,0,0-10,2.25,1.15,1.15,0,1,0,1.05,2,21.58,21.58,0,0,1,7.72-1.94c-.18,2.32-.88,7.4-3.68,10.19a5.4,5.4,0,0,1-3.62,1.7,1.15,1.15,0,0,0,.06,2.3H43a7.7,7.7,0,0,0,5.13-2.37c4.36-4.36,4.41-12.68,4.41-13a1.11,1.11,0,0,0-.34-.81A1.13,1.13,0,0,0,51.38,40.07ZM72.9,37a5.76,5.76,0,0,0-5.76-5.75H9.55A5.76,5.76,0,0,0,3.8,37v2.31A37.07,37.07,0,0,0,13.46,64.4,2.32,2.32,0,0,0,13,65.77v4.61a2.3,2.3,0,0,0,2.3,2.3H61.38a2.31,2.31,0,0,0,2.31-2.3V65.77a2.29,2.29,0,0,0-.45-1.36A36.77,36.77,0,0,0,72.9,39.28Zm-2.3,2.31a34.42,34.42,0,0,1-10,24.47A1.15,1.15,0,0,0,60.31,65a1.13,1.13,0,0,0,1.07.75v4.6H15.31v-4.6H56.78a1.16,1.16,0,0,0,0-2.31h-41A34.93,34.93,0,0,1,6.1,39.28V37a3.46,3.46,0,0,1,3.45-3.45H67.14A3.46,3.46,0,0,1,70.6,37ZM43.14,50.62a1.18,1.18,0,0,0,.81-.34l3.36-3.36a1.15,1.15,0,0,0-1.63-1.63l-3.36,3.36a1.15,1.15,0,0,0,0,1.63A1.18,1.18,0,0,0,43.14,50.62Z"/><rect class="cls-2" width="76.86" height="76.86"/></g></g></svg>