<svg xmlns="http://www.w3.org/2000/svg" viewBox="0 0 28.05 34.95"><defs><style>.cls-1{fill:#f06270;}.cls-2{fill:#fff;}</style></defs><title>Asset 3</title><g id="Layer_2" data-name="Layer 2"><g id="Layer_1-2" data-name="Layer 1"><path class="cls-1" d="M3.53,0h14l10.5,10.5v21A3.25,3.25,0,0,1,27,33.92a3.44,3.44,0,0,1-2.46,1h-21a3.44,3.44,0,0,1-2.46-1A3.25,3.25,0,0,1,0,31.5L.08,3.45A3.31,3.31,0,0,1,1.11,1,3.31,3.31,0,0,1,3.53,0ZM15.75,12.22h9.68l-9.68-9.6Z"/><path class="cls-2" d="M8.92,18.19a4,4,0,0,1,1.29.86l-1,1.22a2.58,2.58,0,0,0-.82-.67,2,2,0,0,0-.95-.25,1.89,1.89,0,0,0-1.69,1,2.12,2.12,0,0,0-.25,1,2.17,2.17,0,0,0,.25,1,1.91,1.91,0,0,0,.7.74,1.88,1.88,0,0,0,1,.27,2.18,2.18,0,0,0,.92-.22,2.83,2.83,0,0,0,.85-.6l1,1.1a4.42,4.42,0,0,1-1.35.93A3.72,3.72,0,0,1,7.33,25a3.79,3.79,0,0,1-1.88-.47,3.45,3.45,0,0,1-1.32-1.29,3.58,3.58,0,0,1-.48-1.84,3.39,3.39,0,0,1,.49-1.8,3.52,3.52,0,0,1,1.35-1.27,4,4,0,0,1,3.44-.15Z"/><path class="cls-2" d="M15.39,18.06a4.66,4.66,0,0,1,1.28.57L16,20a6,6,0,0,0-1.18-.53,3.56,3.56,0,0,0-1.06-.2,1.06,1.06,0,0,0-.56.13.42.42,0,0,0-.21.38.55.55,0,0,0,.33.51,5.51,5.51,0,0,0,1,.38,9.08,9.08,0,0,1,1.2.42,2.18,2.18,0,0,1,.81.63,1.71,1.71,0,0,1,.34,1.12A1.86,1.86,0,0,1,16.32,24a2.24,2.24,0,0,1-1,.73,4,4,0,0,1-1.43.24,5.13,5.13,0,0,1-1.72-.3,4.85,4.85,0,0,1-1.48-.82l.69-1.37a4.53,4.53,0,0,0,1.25.75,3.42,3.42,0,0,0,1.28.3,1.25,1.25,0,0,0,.67-.15.51.51,0,0,0,.24-.46.56.56,0,0,0-.34-.52,5.39,5.39,0,0,0-1-.37,9.76,9.76,0,0,1-1.18-.4,2.09,2.09,0,0,1-.8-.61A1.66,1.66,0,0,1,11.13,20a1.84,1.84,0,0,1,.34-1.11,2.22,2.22,0,0,1,1-.74,3.84,3.84,0,0,1,1.46-.26A5.31,5.31,0,0,1,15.39,18.06Z"/><path class="cls-2" d="M19.87,24.93l-2.72-7H19l1.79,5.15,1.79-5.15h1.83l-2.75,7Z"/></g></g></svg>