<svg xmlns="http://www.w3.org/2000/svg" viewBox="0 0 76.86 76.86"><defs><style>.cls-1{fill:#00b1cb;}.cls-2{fill:none;}</style></defs><title>Asset 3</title><g id="Layer_2" data-name="Layer 2"><g id="Layer_1-2" data-name="Layer 1"><path class="cls-1" d="M67,41.18,55.22,22.88a1.29,1.29,0,0,0-1.1-.6H43.66a1.31,1.31,0,1,0,0,2.61h9.75L63.49,40.58H55.43a5.23,5.23,0,0,0-5.23,5.23,2.62,2.62,0,0,1-2.62,2.62H29.27a2.61,2.61,0,0,1-2.61-2.62,5.24,5.24,0,0,0-5.23-5.23H13.36L23.45,24.89H33.2a1.31,1.31,0,0,0,0-2.61H22.74a1.32,1.32,0,0,0-1.11.6L9.87,41.18a1.28,1.28,0,0,0-.21.71V61.51a5.24,5.24,0,0,0,5.23,5.23H62a5.24,5.24,0,0,0,5.23-5.23V41.89A1.28,1.28,0,0,0,67,41.18ZM64.58,61.51A2.61,2.61,0,0,1,62,64.12H14.89a2.62,2.62,0,0,1-2.62-2.61V43.2h9.16A2.61,2.61,0,0,1,24,45.81a5.24,5.24,0,0,0,5.23,5.24H47.58a5.24,5.24,0,0,0,5.23-5.24,2.62,2.62,0,0,1,2.62-2.61h9.15Z"/><path class="cls-1" d="M29.66,33.12a1.31,1.31,0,0,0,0,1.85l7.84,7.85a1.33,1.33,0,0,0,.93.38,1.31,1.31,0,0,0,.92-.38L47.2,35a1.31,1.31,0,0,0-1.85-1.85l-5.61,5.61V10.51a1.31,1.31,0,0,0-2.62,0V38.73l-5.61-5.61A1.31,1.31,0,0,0,29.66,33.12Z"/><rect class="cls-2" width="76.86" height="76.86"/></g></g></svg>