<?xml version="1.0" encoding="UTF-8" standalone="no"?>
<svg width="545px" height="114px" viewBox="0 0 545 114" version="1.1" xmlns="http://www.w3.org/2000/svg" xmlns:xlink="http://www.w3.org/1999/xlink">
    <!-- Generator: Sketch 39.1 (31720) - http://www.bohemiancoding.com/sketch -->
    <title>gov-fda-new-white</title>
    <desc>Created with Sketch.</desc>
    <defs>
        <polygon id="path-1" points="0 145.5 576 145.5 576 0 0 0"></polygon>
        <polygon id="path-3" points="0 145.5 576 145.5 576 0 0 0"></polygon>
        <polygon id="path-5" points="0 145.5 576 145.5 576 0 0 0"></polygon>
        <polygon id="path-7" points="0 145.5 576 145.5 576 0 0 0"></polygon>
        <polygon id="path-9" points="0 145.5 576 145.5 576 0 0 0"></polygon>
        <polygon id="path-11" points="0 145.5 576 145.5 576 0 0 0"></polygon>
        <polygon id="path-13" points="0 145.5 576 145.5 576 0 0 0"></polygon>
        <polygon id="path-15" points="0 145.5 576 145.5 576 0 0 0"></polygon>
        <polygon id="path-17" points="0 145.5 576 145.5 576 0 0 0"></polygon>
        <polygon id="path-19" points="0 145.5 576 145.5 576 0 0 0"></polygon>
        <polygon id="path-21" points="0 145.5 576 145.5 576 0 0 0"></polygon>
        <polygon id="path-23" points="0 145.5 576 145.5 576 0 0 0"></polygon>
        <polygon id="path-25" points="0 145.5 576 145.5 576 0 0 0"></polygon>
        <polygon id="path-27" points="0 145.5 576 145.5 576 0 0 0"></polygon>
        <polygon id="path-29" points="0 145.5 576 145.5 576 0 0 0"></polygon>
        <polygon id="path-31" points="0 145.5 576 145.5 576 0 0 0"></polygon>
        <polygon id="path-33" points="0 145.5 576 145.5 576 0 0 0"></polygon>
        <polygon id="path-35" points="0 145.5 576 145.5 576 0 0 0"></polygon>
        <polygon id="path-37" points="0 145.5 576 145.5 576 0 0 0"></polygon>
        <polygon id="path-39" points="0 145.5 576 145.5 576 0 0 0"></polygon>
        <polygon id="path-41" points="0 145.5 576 145.5 576 0 0 0"></polygon>
        <polygon id="path-43" points="0 145.5 576 145.5 576 0 0 0"></polygon>
        <polygon id="path-45" points="0 145.5 576 145.5 576 0 0 0"></polygon>
        <polygon id="path-47" points="0 145.5 576 145.5 576 0 0 0"></polygon>
        <polygon id="path-49" points="0 145.5 576 145.5 576 0 0 0"></polygon>
        <polygon id="path-51" points="576 145.5 576 0 0 0 0 145.5"></polygon>
    </defs>
    <g id="Page-1" stroke="none" stroke-width="1" fill="none" fill-rule="evenodd">
        <g id="gov-fda-new-white" transform="translate(-17.000000, -16.000000)">
            <g id="Page-1">
                <g id="Group">
                    <path d="M162.4912,108.2939 L163.1222,108.2939 C168.0102,108.2939 171.3592,106.6199 171.3592,101.7599 C171.3592,97.2849 168.6412,94.8959 164.0562,94.8959 L162.4912,94.8959 L162.4912,108.2939 L162.4912,108.2939 L162.4912,108.2939 Z M159.0872,91.9849 L164.5222,91.9849 C169.4372,91.9849 174.9552,94.5659 174.9552,101.5129 C174.9552,108.6239 169.5192,111.2039 164.2482,111.2039 L159.0872,111.2039 L159.0872,91.9849 L159.0872,91.9849 L159.0872,91.9849 Z" id="Fill-1" fill="#FEFEFE"></path>
                    <polygon id="Fill-3" fill="#FEFEFE" points="194.6382 111.2041 192.2222 111.2041 186.2922 96.2131 186.2922 111.2041 182.8872 111.2041 182.8872 91.9861 188.0212 91.9861 193.4572 106.0701 199.0312 91.9861 204.1102 91.9861 204.1102 111.2041 200.7052 111.2041 200.7052 96.2691"></polygon>
                    <g id="Fill-5-Clipped">
                        <mask id="mask-2" fill="white">
                            <use xlink:href="#path-1"></use>
                        </mask>
                        <g id="path-1"></g>
                        <polygon id="Fill-5" fill="#FEFEFE" mask="url(#mask-2)" points="212.892 111.204 216.296 111.204 216.296 91.986 212.892 91.986"></polygon>
                    </g>
                    <g id="Fill-7-Clipped">
                        <mask id="mask-4" fill="white">
                            <use xlink:href="#path-3"></use>
                        </mask>
                        <g id="path-1"></g>
                        <polygon id="Fill-7" fill="#FEFEFE" mask="url(#mask-4)" points="237.9839 111.2041 228.4849 98.2181 228.4849 111.2041 225.0799 111.2041 225.0799 91.9861 228.0729 91.9861 237.6269 104.9991 237.6269 91.9861 241.0319 91.9861 241.0319 111.2041"></polygon>
                    </g>
                    <g id="Fill-8-Clipped">
                        <mask id="mask-6" fill="white">
                            <use xlink:href="#path-5"></use>
                        </mask>
                        <g id="path-1"></g>
                        <polygon id="Fill-8" fill="#FEFEFE" mask="url(#mask-6)" points="249.814 111.204 253.218 111.204 253.218 91.986 249.814 91.986"></polygon>
                    </g>
                    <g id="Fill-9-Clipped">
                        <mask id="mask-8" fill="white">
                            <use xlink:href="#path-7"></use>
                        </mask>
                        <g id="path-1"></g>
                        <path d="M268.3999,94.5937 C266.8069,94.5937 265.5449,95.3897 265.5449,96.8457 C265.5449,98.3547 267.4389,98.9597 268.9759,99.4807 C271.8039,100.4427 274.9889,101.7047 274.9889,105.5757 C274.9889,109.8037 271.1449,111.5337 267.9609,111.5337 C265.0499,111.5337 262.8539,110.5177 260.7669,108.4587 L263.0739,106.2357 C264.7479,107.8547 266.0109,108.5957 267.9879,108.5957 C269.6899,108.5957 271.3919,107.7717 271.3919,105.7677 C271.3919,103.9287 269.4429,103.2417 267.4389,102.5297 C264.8579,101.5947 262.1399,100.3317 262.1399,97.0097 C262.1399,93.3577 265.0499,91.6557 268.2069,91.6557 C270.5959,91.6557 272.5459,92.3977 274.4129,93.7977 L272.4079,96.2407 C271.4199,95.3637 269.8819,94.5937 268.3999,94.5937" id="Fill-9" fill="#FEFEFE" mask="url(#mask-8)"></path>
                    </g>
                    <g id="Fill-10-Clipped">
                        <mask id="mask-10" fill="white">
                            <use xlink:href="#path-9"></use>
                        </mask>
                        <g id="path-1"></g>
                        <polygon id="Fill-10" fill="#FEFEFE" mask="url(#mask-10)" points="288.9326 94.8955 288.9326 111.2045 285.5286 111.2045 285.5286 94.8955 280.8606 94.8955 280.8606 91.9855 293.6006 91.9855 293.6006 94.8955"></polygon>
                    </g>
                    <g id="Fill-11-Clipped">
                        <mask id="mask-12" fill="white">
                            <use xlink:href="#path-11"></use>
                        </mask>
                        <g id="path-1"></g>
                        <path d="M305.7334,100.4414 C307.9574,100.4414 309.6044,99.6454 309.6044,97.7234 C309.6044,96.0214 308.2584,94.8954 306.2834,94.8954 L303.8384,94.8954 L303.8384,100.4414 L305.7334,100.4414 L305.7334,100.4414 Z M306.3654,91.9854 C309.4124,91.9854 313.2014,93.5504 313.2014,97.6414 C313.2014,100.7444 311.0594,102.3904 308.8084,103.0224 L314.7664,111.2044 L310.5384,111.2044 L305.0464,103.3514 L303.8384,103.3514 L303.8384,111.2044 L300.4354,111.2044 L300.4354,91.9854 L306.3654,91.9854 L306.3654,91.9854 Z" id="Fill-11" fill="#FEFEFE" mask="url(#mask-12)"></path>
                    </g>
                    <g id="Fill-12-Clipped">
                        <mask id="mask-14" fill="white">
                            <use xlink:href="#path-13"></use>
                        </mask>
                        <g id="path-1"></g>
                        <polygon id="Fill-12" fill="#FEFEFE" mask="url(#mask-14)" points="349.876 94.8955 349.876 111.2045 346.472 111.2045 346.472 94.8955 341.804 94.8955 341.804 91.9855 354.544 91.9855 354.544 94.8955"></polygon>
                    </g>
                    <g id="Fill-13-Clipped">
                        <mask id="mask-16" fill="white">
                            <use xlink:href="#path-15"></use>
                        </mask>
                        <g id="path-1"></g>
                        <polygon id="Fill-13" fill="#FEFEFE" mask="url(#mask-16)" points="361.378 111.204 364.782 111.204 364.782 91.986 361.378 91.986"></polygon>
                    </g>
                    <g id="Fill-14-Clipped">
                        <mask id="mask-18" fill="white">
                            <use xlink:href="#path-17"></use>
                        </mask>
                        <g id="path-1"></g>
                        <path d="M382.6807,94.6494 C379.0017,94.6494 376.3117,97.6964 376.3117,101.5944 C376.3117,105.4944 379.0017,108.5414 382.6807,108.5414 C386.3867,108.5414 389.0777,105.4944 389.0777,101.5944 C389.0777,97.6964 386.3867,94.6494 382.6807,94.6494 M382.6807,111.5344 C377.0257,111.5344 372.7147,107.0864 372.7147,101.5944 C372.7147,96.1034 377.0257,91.6564 382.6807,91.6564 C388.3647,91.6564 392.6747,96.1034 392.6747,101.5944 C392.6747,107.0864 388.3647,111.5344 382.6807,111.5344" id="Fill-14" fill="#FEFEFE" mask="url(#mask-18)"></path>
                    </g>
                    <g id="Fill-15-Clipped">
                        <mask id="mask-20" fill="white">
                            <use xlink:href="#path-19"></use>
                        </mask>
                        <g id="path-1"></g>
                        <polygon id="Fill-15" fill="#FEFEFE" mask="url(#mask-20)" points="413.5098 111.2041 404.0108 98.2181 404.0108 111.2041 400.6058 111.2041 400.6058 91.9861 403.5988 91.9861 413.1528 104.9991 413.1528 91.9861 416.5578 91.9861 416.5578 111.2041"></polygon>
                    </g>
                    <g id="Fill-16-Clipped">
                        <mask id="mask-22" fill="white">
                            <use xlink:href="#path-21"></use>
                        </mask>
                        <g id="path-1"></g>
                        <polygon id="Fill-16" fill="#FEFEFE" mask="url(#mask-22)" points="148.2451 111.2041 152.1441 111.2041 144.8681 91.9861 142.0401 91.9861 134.3801 111.2041 138.1141 111.2041 139.4871 107.4151 144.7641 107.4151 143.7471 104.5601 140.5301 104.5601 143.2211 97.1751 143.2481 97.1751"></polygon>
                    </g>
                    <g id="Fill-17-Clipped">
                        <mask id="mask-24" fill="white">
                            <use xlink:href="#path-23"></use>
                        </mask>
                        <g id="path-1"></g>
                        <polygon id="Fill-17" fill="#FEFEFE" mask="url(#mask-24)" points="334.1738 111.2041 338.0728 111.2041 330.7968 91.9861 327.9688 91.9861 320.3098 111.2041 324.0428 111.2041 325.4158 107.4151 330.6928 107.4151 329.6758 104.5601 326.4588 104.5601 329.1508 97.1751 329.1768 97.1751"></polygon>
                    </g>
                    <g id="Fill-18-Clipped">
                        <mask id="mask-26" fill="white">
                            <use xlink:href="#path-25"></use>
                        </mask>
                        <g id="path-1"></g>
                        <path d="M150.2104,72.8267 L150.2214,72.8267 L150.2324,72.8267 C154.0284,72.7917 157.2264,71.5257 159.7244,69.0727 C162.2194,66.6727 163.5224,63.4107 163.5914,59.3577 L163.5914,34.7237 L156.1094,34.7237 L156.1094,58.7767 C156.0834,60.8797 155.5294,62.4757 154.4544,63.5307 C153.3394,64.6517 151.9564,65.1967 150.2214,65.1967 C148.4934,65.1967 147.1274,64.6557 146.0174,63.5107 C144.9114,62.4537 144.3604,60.9037 144.3334,58.7927 L144.3334,34.7237 L136.8514,34.7237 L136.8514,59.3797 C136.8854,63.4217 138.2144,66.6877 140.7854,69.0727 C143.3024,71.5277 146.4744,72.7917 150.2104,72.8267" id="Fill-18" fill="#FEFEFE" mask="url(#mask-26)"></path>
                    </g>
                    <g id="Fill-19-Clipped">
                        <mask id="mask-28" fill="white">
                            <use xlink:href="#path-27"></use>
                        </mask>
                        <g id="path-1"></g>
                        <polygon id="Fill-19" fill="#FEFEFE" mask="url(#mask-28)" points="167.396 72.534 174.585 72.534 174.585 65.197 167.396 65.197"></polygon>
                    </g>
                    <g id="Fill-20-Clipped">
                        <mask id="mask-30" fill="white">
                            <use xlink:href="#path-29"></use>
                        </mask>
                        <g id="path-1"></g>
                        <polygon id="Fill-20" fill="#FEFEFE" mask="url(#mask-30)" points="212.787 72.534 219.976 72.534 219.976 65.197 212.787 65.197"></polygon>
                    </g>
                    <g id="Fill-21-Clipped">
                        <mask id="mask-32" fill="white">
                            <use xlink:href="#path-31"></use>
                        </mask>
                        <g id="path-1"></g>
                        <polygon id="Fill-21" fill="#FEFEFE" mask="url(#mask-32)" points="241.2603 72.4526 248.7413 72.4526 248.7413 57.2636 259.9053 57.2636 259.9053 50.2206 248.7413 50.2206 248.7413 41.9796 265.5223 41.9796 265.5223 34.6416 241.2603 34.6416"></polygon>
                    </g>
                    <g id="Fill-22-Clipped">
                        <mask id="mask-34" fill="white">
                            <use xlink:href="#path-33"></use>
                        </mask>
                        <g id="path-1"></g>
                        <path d="M288.5293,53.5474 C288.5293,56.9644 288.4163,59.2844 288.1973,60.4304 C287.9863,61.4634 287.6053,62.2964 286.9893,63.0034 C286.5723,63.5884 286.0053,64.0714 285.2563,64.4664 C283.7983,65.3254 281.5153,65.3884 279.9353,64.4304 C279.1993,64.0584 278.5993,63.5704 278.0983,62.9104 C277.5623,62.3054 277.1983,61.4784 277.0123,60.4304 C276.7753,59.2714 276.6553,56.9554 276.6553,53.5474 C276.6553,50.1344 276.7753,47.8014 277.0163,46.5934 C277.1983,45.5874 277.5533,44.8004 278.1533,44.1154 C278.6053,43.5154 279.2153,43.0054 279.9593,42.6024 C280.6733,42.2214 281.5593,42.0104 282.5923,41.9794 C283.6473,42.0124 284.5603,42.2234 285.2763,42.5914 C285.9893,42.9944 286.5663,43.4974 287.0623,44.1844 C287.6073,44.7984 287.9883,45.6184 288.1943,46.5974 C288.4163,47.7904 288.5293,50.1284 288.5293,53.5474 M294.3853,41.3724 C293.5043,39.5684 292.0643,37.9484 290.1073,36.5594 C288.0993,35.1294 285.5793,34.3854 282.5903,34.3494 C279.6563,34.3854 277.1613,35.1274 275.1843,36.5434 C273.1963,37.9244 271.7243,39.5354 270.8493,41.2594 C270.2573,42.2364 269.8213,43.5084 269.5443,45.0534 C269.2963,46.5244 269.1743,49.3034 269.1743,53.5474 C269.1743,57.7154 269.2963,60.4724 269.5443,61.9684 C269.6773,62.7924 269.8543,63.5044 270.0893,64.1274 C270.2973,64.6274 270.5323,65.1554 270.8073,65.7384 C271.7243,67.5444 273.2003,69.1464 275.1683,70.4844 C277.1563,71.9144 279.6493,72.6744 282.5773,72.7454 L282.6033,72.7454 L282.6303,72.7454 C285.5863,72.6764 288.1013,71.9164 290.0933,70.4964 C292.0573,69.1374 293.5003,67.5304 294.3043,65.8604 C294.9783,64.8624 295.4453,63.5504 295.6943,61.9464 C295.9063,60.4504 296.0103,57.7024 296.0103,53.5474 C296.0103,49.3254 295.9063,46.5624 295.6913,45.0824 C295.4453,43.5264 294.9803,42.2344 294.3853,41.3724" id="Fill-22" fill="#FEFEFE" mask="url(#mask-34)"></path>
                    </g>
                    <g id="Fill-23-Clipped">
                        <mask id="mask-36" fill="white">
                            <use xlink:href="#path-35"></use>
                        </mask>
                        <g id="path-1"></g>
                        <path d="M321.2451,53.5474 C321.2451,56.9644 321.1321,59.2844 320.9131,60.4304 C320.7021,61.4634 320.3211,62.2964 319.7051,63.0034 C319.2881,63.5884 318.7211,64.0714 317.9731,64.4664 C316.5151,65.3254 314.2311,65.3884 312.6511,64.4304 C311.9151,64.0584 311.3151,63.5704 310.8141,62.9104 C310.2781,62.3054 309.9141,61.4784 309.7281,60.4304 C309.4911,59.2714 309.3711,56.9554 309.3711,53.5474 C309.3711,50.1344 309.4911,47.8014 309.7321,46.5934 C309.9141,45.5874 310.2691,44.8004 310.8691,44.1154 C311.3211,43.5154 311.9321,43.0054 312.6751,42.6024 C313.3901,42.2214 314.2751,42.0104 315.3081,41.9794 C316.3631,42.0124 317.2761,42.2234 317.9921,42.5914 C318.7051,42.9944 319.2821,43.4974 319.7781,44.1844 C320.3231,44.7984 320.7041,45.6184 320.9101,46.5974 C321.1321,47.7904 321.2451,50.1284 321.2451,53.5474 M327.1021,41.3724 C326.2201,39.5684 324.7801,37.9484 322.8231,36.5594 C320.8151,35.1294 318.2951,34.3854 315.3071,34.3494 C312.3721,34.3854 309.8771,35.1274 307.9001,36.5434 C305.9121,37.9244 304.4401,39.5354 303.5651,41.2594 C302.9741,42.2364 302.5371,43.5084 302.2601,45.0534 C302.0121,46.5244 301.8911,49.3034 301.8911,53.5474 C301.8911,57.7154 302.0121,60.4724 302.2601,61.9684 C302.3931,62.7924 302.5701,63.5044 302.8061,64.1274 C303.0141,64.6274 303.2481,65.1554 303.5231,65.7384 C304.4401,67.5444 305.9161,69.1464 307.8841,70.4844 C309.8721,71.9144 312.3651,72.6744 315.2931,72.7454 L315.3191,72.7454 L315.3461,72.7454 C318.3021,72.6764 320.8171,71.9164 322.8101,70.4964 C324.7731,69.1374 326.2161,67.5304 327.0201,65.8604 C327.6941,64.8624 328.1611,63.5504 328.4101,61.9464 C328.6221,60.4504 328.7271,57.7024 328.7271,53.5474 C328.7271,49.3254 328.6221,46.5624 328.4071,45.0824 C328.1611,43.5264 327.6961,42.2344 327.1021,41.3724" id="Fill-23" fill="#FEFEFE" mask="url(#mask-36)"></path>
                    </g>
                    <g id="Fill-24-Clipped">
                        <mask id="mask-38" fill="white">
                            <use xlink:href="#path-37"></use>
                        </mask>
                        <g id="path-1"></g>
                        <path d="M343.2578,41.9795 L348.6008,41.9775 C350.7618,41.9775 352.3898,42.8015 353.6488,44.5855 C354.2118,45.2485 354.5768,46.1455 354.7308,47.2185 C354.8668,48.5085 354.9368,50.7045 354.9368,53.7425 C354.9368,56.8585 354.8668,58.9995 354.7348,60.0895 C354.6038,61.0595 354.3048,61.8575 353.7928,62.5355 C352.6808,64.2715 350.9028,65.1155 348.3628,65.1155 L343.2578,65.1155 L343.2578,41.9795 L343.2578,41.9795 Z M360.4218,41.1975 C357.8858,36.8845 354.0288,34.6775 348.9568,34.6425 L335.7768,34.6425 L335.7768,72.4525 L348.6008,72.4525 C351.3948,72.4525 353.8068,71.7995 355.7298,70.5335 C357.6738,69.3545 359.2178,67.8325 360.3198,66.0015 C360.7228,65.3305 361.0618,64.6835 361.3608,64.0315 C361.6448,63.3535 361.8618,62.5805 361.9978,61.7405 C362.2798,60.1405 362.4178,57.4615 362.4178,53.5475 C362.4178,49.8775 362.3308,47.3535 362.1458,45.7975 C361.9038,44.1885 361.3188,42.6315 360.4218,41.1975 L360.4218,41.1975 L360.4218,41.1975 Z" id="Fill-24" fill="#FEFEFE" mask="url(#mask-38)"></path>
                    </g>
                    <g id="Fill-25-Clipped">
                        <mask id="mask-40" fill="white">
                            <use xlink:href="#path-39"></use>
                        </mask>
                        <g id="path-1"></g>
                        <path d="M443.626,41.9795 L448.969,41.9775 C451.13,41.9775 452.758,42.8015 454.017,44.5855 C454.58,45.2485 454.946,46.1455 455.099,47.2185 C455.236,48.5085 455.305,50.7045 455.305,53.7425 C455.305,56.8585 455.236,58.9995 455.103,60.0895 C454.972,61.0595 454.673,61.8575 454.161,62.5355 C453.049,64.2715 451.272,65.1155 448.732,65.1155 L443.626,65.1155 L443.626,41.9795 L443.626,41.9795 Z M460.79,41.1975 C458.254,36.8845 454.398,34.6775 449.326,34.6425 L436.145,34.6425 L436.145,72.4525 L448.969,72.4525 C451.763,72.4525 454.175,71.7995 456.098,70.5335 C458.042,69.3545 459.586,67.8325 460.688,66.0015 C461.091,65.3305 461.43,64.6835 461.729,64.0315 C462.013,63.3535 462.23,62.5805 462.367,61.7405 C462.649,60.1405 462.786,57.4615 462.786,53.5475 C462.786,49.8775 462.7,47.3535 462.514,45.7975 C462.272,44.1885 461.687,42.6315 460.79,41.1975 L460.79,41.1975 L460.79,41.1975 Z" id="Fill-25" fill="#FEFEFE" mask="url(#mask-40)"></path>
                    </g>
                    <g id="Fill-26-Clipped">
                        <mask id="mask-42" fill="white">
                            <use xlink:href="#path-41"></use>
                        </mask>
                        <g id="path-1"></g>
                        <path d="M477.3418,41.687 L484.3978,41.687 C485.7908,41.687 486.8378,41.968 487.5558,42.562 C488.3848,43.178 488.8008,44.204 488.8248,45.685 C488.8248,46.952 488.4478,47.983 487.6528,48.858 C486.8908,49.747 485.7278,50.195 484.1128,50.221 L477.3418,50.221 L477.3418,41.687 L477.3418,41.687 Z M496.0148,45.665 C495.9068,42.05 494.6198,39.216 492.2058,37.257 C490.1908,35.522 487.5788,34.642 484.4458,34.642 L469.8608,34.642 L469.8608,72.453 L477.3418,72.453 L477.3418,57.264 L482.1608,57.264 L489.2858,72.453 L498.0448,72.453 L489.7798,56.098 C493.8538,54.075 495.9488,50.585 496.0148,45.665 L496.0148,45.665 L496.0148,45.665 Z" id="Fill-26" fill="#FEFEFE" mask="url(#mask-42)"></path>
                    </g>
                    <g id="Fill-27-Clipped">
                        <mask id="mask-44" fill="white">
                            <use xlink:href="#path-43"></use>
                        </mask>
                        <g id="path-1"></g>
                        <path d="M521.2002,58.6953 C521.1732,60.7983 520.6192,62.3943 519.5452,63.4483 C518.4292,64.5703 517.0472,65.1153 515.3122,65.1153 C513.5832,65.1153 512.2182,64.5743 511.1082,63.4293 C510.0022,62.3713 509.4502,60.8223 509.4242,58.7113 L509.4242,34.6423 L501.9422,34.6423 L501.9422,59.2983 C501.9752,63.3403 503.3042,66.6063 505.8762,68.9913 C508.3922,71.4463 511.5642,72.7093 515.3012,72.7453 L515.3122,72.7453 L515.3232,72.7453 C519.1192,72.7093 522.3172,71.4443 524.8142,68.9913 C527.3092,66.5913 528.6132,63.3293 528.6812,59.2763 L528.6812,34.6423 L521.2002,34.6423 L521.2002,58.6953 L521.2002,58.6953 Z" id="Fill-27" fill="#FEFEFE" mask="url(#mask-44)"></path>
                    </g>
                    <g id="Fill-28-Clipped">
                        <mask id="mask-46" fill="white">
                            <use xlink:href="#path-45"></use>
                        </mask>
                        <g id="path-1"></g>
                        <path d="M394.834,47.5942 C395.831,46.9102 396.863,46.3182 397.699,45.4502 C398.482,44.6382 398.809,43.6902 398.572,42.5872 C398.105,40.4002 395.389,39.4082 393.534,40.7322 C392.447,41.5082 392.006,43.1922 392.573,44.4842 C393.097,45.6752 394.036,46.5662 394.834,47.5942 M400.454,64.4012 C397.918,61.4202 395.396,58.4542 392.87,55.4852 C391.954,56.1372 391.159,56.8432 390.415,57.6132 C389.421,58.6402 389.012,59.8852 389.012,61.2802 C389.011,63.6612 390.501,65.6782 392.797,66.3532 C394.744,66.9252 396.646,66.7322 398.458,65.8212 C399.183,65.4572 399.837,64.9802 400.454,64.4012 M398.576,51.8552 C400.714,54.3852 402.837,56.8982 404.99,59.4452 C405.715,58.4762 406.143,57.4082 406.423,56.2712 C406.704,55.1382 406.854,53.9842 406.926,52.8062 L413.495,52.8062 C413.428,53.5242 413.378,54.2192 413.293,54.9092 C413.091,56.5662 412.77,58.1992 412.232,59.7832 C411.657,61.4762 410.791,63.0042 409.612,64.3522 C409.555,64.4182 409.504,64.4912 409.434,64.5832 C411.693,67.2502 413.949,69.9122 416.204,72.5732 C416.127,72.6812 416.03,72.6362 415.951,72.6362 C413.212,72.6392 410.475,72.6372 407.735,72.6422 C407.542,72.6432 407.413,72.5922 407.284,72.4362 C406.479,71.4562 405.658,70.4882 404.845,69.5152 C404.795,69.4562 404.755,69.3902 404.703,69.3162 C404.101,69.7642 403.549,70.1932 402.98,70.5932 C401.195,71.8462 399.199,72.5642 397.05,72.8212 C394.681,73.1042 392.317,73.0042 390.004,72.3762 C385.731,71.2152 383.278,68.3862 382.513,64.0632 C382.233,62.4872 382.163,60.8972 382.531,59.3242 C382.941,57.5672 383.826,56.0512 384.989,54.6862 C386.09,53.3952 387.44,52.3972 388.814,51.4272 C388.905,51.3632 388.997,51.3022 389.117,51.2202 C388.786,50.8212 388.454,50.4372 388.139,50.0412 C386.972,48.5762 385.979,47.0082 385.574,45.1532 C384.685,41.0712 386.381,36.8732 390.72,35.1452 C392.858,34.2932 395.073,34.1262 397.335,34.4222 C399.268,34.6752 400.994,35.4062 402.457,36.7112 C403.725,37.8412 404.535,39.2512 404.917,40.8972 C405.318,42.6282 405.375,44.3542 404.68,46.0362 C404.24,47.0972 403.493,47.9362 402.681,48.7182 C401.569,49.7872 400.257,50.6002 399.032,51.5232 C398.892,51.6292 398.747,51.7302 398.576,51.8552" id="Fill-28" fill="#FEFEFE" mask="url(#mask-46)"></path>
                    </g>
                    <g id="Fill-29-Clipped">
                        <mask id="mask-48" fill="white">
                            <use xlink:href="#path-47"></use>
                        </mask>
                        <g id="path-1"></g>
                        <path d="M548.5605,50.6357 L548.5605,57.9707 L554.4765,57.9707 L554.4765,58.6797 C554.4505,60.6297 553.8895,62.1437 552.7445,63.3267 C551.6305,64.5307 550.2565,65.1157 548.5395,65.1157 C547.5255,65.1157 546.6585,64.9007 545.8825,64.4307 C545.1465,64.0587 544.5465,63.5707 544.0455,62.9107 C543.5085,62.3057 543.1455,61.4787 542.9595,60.4307 C542.7225,59.2717 542.6025,56.9557 542.6025,53.5477 C542.6025,50.1347 542.7225,47.8017 542.9635,46.5937 C543.1455,45.5877 543.4995,44.8007 544.1005,44.1157 C544.5505,43.5157 545.1605,43.0057 545.9055,42.6027 C546.6245,42.2167 547.5205,42.0087 548.5125,41.9797 C549.9315,42.0087 551.0925,42.4117 552.0255,43.1807 C552.9965,44.0557 553.6475,45.0887 554.0155,46.3347 L554.2565,47.1477 L561.9995,47.1477 L561.7495,45.8067 C561.1565,42.6067 559.7125,39.8857 557.4555,37.7117 C555.1575,35.5177 552.1645,34.3847 548.5385,34.3497 C545.6035,34.3847 543.1055,35.1297 541.1285,36.5527 C539.1435,37.9377 537.6715,39.5527 536.7965,41.2837 C536.2055,42.2637 535.7655,43.5327 535.4925,45.0687 C535.2435,46.5407 535.1225,49.3127 535.1225,53.5477 C535.1225,57.7157 535.2435,60.4727 535.4925,61.9687 C535.6245,62.7927 535.8015,63.5047 536.0375,64.1277 C536.2455,64.6277 536.4795,65.1557 536.7545,65.7387 C537.6715,67.5447 539.1475,69.1467 541.1165,70.4847 C543.1035,71.9147 545.5965,72.6747 548.5235,72.7457 L548.5485,72.7457 L548.5715,72.7457 C551.0015,72.6997 553.1855,72.1257 555.1065,71.0417 L555.1065,72.5207 L561.9995,72.5207 L561.9995,50.6357 L561.9575,50.6357 L548.5605,50.6357 L548.5605,50.6357 Z" id="Fill-29" fill="#FEFEFE" mask="url(#mask-48)"></path>
                    </g>
                    <g id="Fill-30-Clipped">
                        <mask id="mask-50" fill="white">
                            <use xlink:href="#path-49"></use>
                        </mask>
                        <g id="path-1"></g>
                        <path d="M196.3887,41.0327 C193.8417,41.0327 191.5587,42.3067 191.5587,44.7477 C191.5587,47.6137 195.0617,48.4097 197.9277,49.4177 C203.1817,51.2227 209.4977,53.6637 209.4977,61.4657 C209.4977,69.5327 201.9077,72.9827 195.4337,72.9827 C189.7017,72.9827 185.2437,70.8067 181.2107,66.7727 L186.2517,61.8367 C189.2767,64.7557 191.6117,66.5067 195.4867,66.5067 C198.4587,66.5067 201.3777,65.0747 201.3777,61.7837 C201.3777,58.5997 197.9807,57.3787 194.2127,55.9997 C189.3827,54.1947 183.9697,52.0717 183.9697,44.9597 C183.9697,37.9017 189.9667,34.5577 196.1237,34.5577 C200.8997,34.5577 204.6677,36.0967 208.4357,38.9637 L204.0837,44.3767 C202.0147,42.6247 199.2547,41.0327 196.3887,41.0327" id="Fill-30" fill="#FEFEFE" mask="url(#mask-50)"></path>
                    </g>
                    <g id="Fill-31-Clipped">
                        <mask id="mask-52" fill="white">
                            <use xlink:href="#path-51"></use>
                        </mask>
                        <g id="path-1"></g>
                        <polygon id="Fill-31" fill="#FEFEFE" mask="url(#mask-52)" points="17.1679 129.8535 112.0639 129.8535 112.0639 16.2525 17.1679 16.2525"></polygon>
                    </g>
                    <polygon id="Fill-31-path" fill="#007CBA" points="96.8589 69.9165 88.8429 45.8235 84.9899 57.1625 89.3219 57.1625 90.8879 62.6095 83.2619 62.6095 80.7379 69.9165 73.6519 69.9165 85.5209 38.2955 91.8099 38.2955 103.6789 69.9165"></polygon>
                    <path d="M65.2459,68.8975 C63.2079,69.5785 60.9059,69.9165 58.3369,69.9165 L47.6189,69.9165 L47.6189,51.2555 L54.2179,51.2555 L54.2179,64.2915 L58.4699,64.2915 C60.1819,64.2915 61.6429,64.0475 62.8539,63.5615 C64.0649,63.0735 65.0459,62.3735 65.7999,61.4575 C66.5519,60.5415 67.1059,59.4585 67.4599,58.2035 C67.8149,56.9475 67.9919,55.5385 67.9919,53.9735 C67.9919,52.4375 67.8369,51.0415 67.5269,49.7875 C67.2169,48.5325 66.7219,47.4775 66.0429,46.6215 C65.3629,45.7655 64.4849,45.1015 63.4079,44.6275 C62.4639,44.2145 61.2999,44.0165 59.9829,43.9625 L33.2339,43.9625 L33.2339,51.2055 L42.1359,51.2055 L42.1359,56.8745 L33.2339,56.8745 L33.2339,69.9165 L26.6349,69.9165 L26.6349,38.2945 L47.6189,38.2945 L60.6259,38.2945 C64.8979,38.4975 68.2839,39.8295 70.7599,42.2365 C73.4609,44.8635 74.8119,48.7615 74.8119,53.9285 C74.8119,56.5555 74.4359,58.8595 73.6829,60.8365 C72.9299,62.8155 71.8439,64.4835 70.4269,65.8415 C69.0099,67.2005 67.2829,68.2185 65.2459,68.8975 L65.2459,68.8975 L65.2459,68.8975 Z" id="Fill-31-path" fill="#007CBA"></path>
                </g>
            </g>
        </g>
    </g>
</svg>