<svg xmlns="http://www.w3.org/2000/svg" viewBox="0 0 76.86 76.86"><defs><style>.cls-1{fill:#fff;}.cls-2{fill:none;}</style></defs><title>Asset 5</title><g id="Layer_2" data-name="Layer 2"><g id="Layer_1-2" data-name="Layer 1"><path class="cls-1" d="M47.78,35.86a1.07,1.07,0,0,0,.39.07,1.22,1.22,0,0,0,1.16-.83,2.15,2.15,0,0,1,2.73-1.34,4.6,4.6,0,0,0,5.82-2.88,1.22,1.22,0,1,0-2.31-.78,2.16,2.16,0,0,1-2.73,1.34A4.6,4.6,0,0,0,47,34.31,1.21,1.21,0,0,0,47.78,35.86Zm2.89-8.51a1.07,1.07,0,0,0,.39.07,1.22,1.22,0,0,0,1.16-.83,2.11,2.11,0,0,1,1.08-1.24A2.2,2.2,0,0,1,55,25.24a4.59,4.59,0,0,0,5.82-2.87,1.22,1.22,0,0,0-2.31-.79,2.15,2.15,0,0,1-2.73,1.35,4.6,4.6,0,0,0-3.51.23,4.53,4.53,0,0,0-2.31,2.64A1.21,1.21,0,0,0,50.67,27.35Zm2.89-8.51a1.07,1.07,0,0,0,.39.07,1.22,1.22,0,0,0,1.16-.83,1.59,1.59,0,0,1,2-1,4,4,0,0,0,5.11-2.52,1.22,1.22,0,1,0-2.31-.78,1.59,1.59,0,0,1-.8.91,1.54,1.54,0,0,1-1.21.08,4.05,4.05,0,0,0-5.12,2.52A1.23,1.23,0,0,0,53.56,18.84Zm8.85,16.93a1.86,1.86,0,0,0-.7-.26,85.76,85.76,0,0,0,3.95-23A8.22,8.22,0,0,0,62.31,5.7a5,5,0,0,0-5.22,0c-3.65,1.88-6.26,7.42-8.35,11.87l-.36.75a7.06,7.06,0,0,0-3.87-4.9A5.83,5.83,0,0,0,40,8.87a2.62,2.62,0,0,0-.09-.38,4.22,4.22,0,0,0-3.49-3A4.16,4.16,0,0,0,33.8,6,4.48,4.48,0,0,0,27.27,9a5.5,5.5,0,0,0-4.05,5.24,6.1,6.1,0,0,0-4.16,8.13,4.8,4.8,0,0,0-.67,4.94,6.5,6.5,0,0,0-4.87-2.35,1.22,1.22,0,0,0,0,2.44h.12a4.26,4.26,0,0,1,3,1.64c-1.94.55-4.27,1.46-5.36,3.52A6.18,6.18,0,0,0,11,37a2,2,0,0,0-.3,1.2l2.07,29.55a7,7,0,0,0,7,6.6H54a7,7,0,0,0,7-6.58L63.1,37.21v0A1.61,1.61,0,0,0,62.41,35.77Zm-13-14c.48-.91,1-2,1.57-3.21,1.83-3.9,4.35-9.24,7.26-10.74A2.66,2.66,0,0,1,61,7.77a5.93,5.93,0,0,1,2.21,4.71A84,84,0,0,1,59.3,35.07c-.08.25-.26.77-.51,1.47l-2.08.93-.13.07a3.79,3.79,0,0,1-3.9,0L51.81,37a6.34,6.34,0,0,0-3.25-.91h0a6.25,6.25,0,0,0-3.29.9l-.87.52A3.8,3.8,0,0,1,42.8,38c0-.1.06-.21.1-.31.33-1.14.69-2.26,1.07-3.37.14-.43.29-.85.44-1.27.31-.88.64-1.75,1-2.62l.45-1.16A79.91,79.91,0,0,1,49.38,21.77ZM33.81,24.66l.41-.53h0a2.34,2.34,0,0,0,.25-.39,2.62,2.62,0,0,0,.24-1.82l5.1-1.12a3.45,3.45,0,0,0,.12.46,2.77,2.77,0,0,0,1.21,1.35l.58.31.5.27c.07,0,.16.08.23.13s.29.17.43.26l.36.23.39.3.33.3a3.82,3.82,0,0,1,.34.36,4.07,4.07,0,0,1,.52.74c-.52,1.14-1,2.31-1.48,3.48-.07.19-.15.36-.22.54a12.47,12.47,0,0,0-4.23,2.12,7.18,7.18,0,0,1-6,1.45l-.75-3.4C31.66,27.4,32.75,26,33.81,24.66Zm6-7.41H40a.51.51,0,0,1,.5.39.5.5,0,0,1-.07.38.48.48,0,0,1-.32.22l-6.75,1.48a.51.51,0,0,1-.21-1l3.58-.78ZM35.92,36.14l-.28,0a6,6,0,0,0-2,.51l-.23-1.06c.35,0,.7,0,1,0a9.43,9.43,0,0,0,5.81-2A15.14,15.14,0,0,1,42,32.57c-.12.32-.23.64-.34,1s-.16.46-.23.69c-.36,1.08-.71,2.18-1,3.28L39.59,37a6.29,6.29,0,0,0-3.24-.9H36.3ZM21.31,23.51l.8-.66-.52-.9a3.61,3.61,0,0,1-.5-1.84,3.66,3.66,0,0,1,3.53-3.67l1.48-.06-.34-1.45a2.92,2.92,0,0,1-.09-.7,3,3,0,0,1,2.79-3l1.13-.09V9.91A2,2,0,0,1,33,8.46l.85.77.82-.81a1.75,1.75,0,0,1,1.43-.48,1.79,1.79,0,0,1,1.44,1.24,1.6,1.6,0,0,1,.05.65l-.14,1.36h1.38a3.37,3.37,0,0,1,3.34,3.13l0,.8.76.27a4.66,4.66,0,0,1,3.13,4.5,4.39,4.39,0,0,1-.81,2.42,12.86,12.86,0,0,0-2.43-1.55l-.57-.3a.3.3,0,0,1-.14-.21.72.72,0,0,1,.17-.55,2.59,2.59,0,0,0,.58-2.25l-.15-.67a2.6,2.6,0,0,0-3.1-2l-.33.07h0l-3.58.79-3.5.76a2.6,2.6,0,0,0-2,3.1l.07.33h0l.07.33A2.61,2.61,0,0,0,31.92,22a.73.73,0,0,1,.4.39c0,.09,0,.14,0,.26h0l-.39.5-.41.53-.14.19c-.11.14-.21.28-.31.43l-.16.24c-.09.15-.18.29-.27.45l-.15.26c-.09.17-.17.35-.26.54s-.07.15-.1.23a6.89,6.89,0,0,0-.28.84l0,.14a6.34,6.34,0,0,0-.13.78c0,.11,0,.22,0,.33s0,.28,0,.43l0,0-.05-.06c-.21-.28-.42-.54-.64-.78a2.2,2.2,0,0,0-.2-.23l-.54-.55L28,26.75a6.78,6.78,0,0,0-.69-.56l-.19-.13c-.18-.12-.35-.22-.53-.32l-.25-.13a4.28,4.28,0,0,0-.55-.23.62.62,0,0,0-.19-.07,4.44,4.44,0,0,0-.6-.16h-.07l-.12,0c-.14,0-.28,0-.42,0a2.85,2.85,0,0,0-.29,0H24a5.27,5.27,0,0,0-.56,0l-.27,0a5.68,5.68,0,0,0-.71.18l-.1,0a7.94,7.94,0,0,0-1.73.85,2.35,2.35,0,0,1,.71-2.71ZM13.46,33.65c.51-1,1.77-1.72,3.95-2.34a6.52,6.52,0,0,0,2.73-1.57c.35-.33.67-.61,1-.87a5.4,5.4,0,0,1,2.6-1.33h.05a2.41,2.41,0,0,1,.71,0l.18.05.34.1.22.11a2.39,2.39,0,0,1,.32.16l.25.17.29.21.28.25a3.45,3.45,0,0,1,.28.26c.1.1.21.22.31.34l.26.28.35.45.22.29.4.6.18.26c.19.31.39.64.58,1a9.3,9.3,0,0,1,.81,6l-.19,0a3.79,3.79,0,0,1-1.32-.47L27.37,37a6.29,6.29,0,0,0-3.24-.9h0A6.33,6.33,0,0,0,20.8,37l-.43.26a4.64,4.64,0,0,1-2.39.67,4.7,4.7,0,0,1-2.4-.67l-1.64-1h0a2,2,0,0,0-.69-.26A3.51,3.51,0,0,1,13.46,33.65Zm45.07,34A4.52,4.52,0,0,1,54,71.92H19.73a4.52,4.52,0,0,1-4.51-4.31l-2-28.88,1.07.63a7.29,7.29,0,0,0,7.47,0l.42-.25a3.73,3.73,0,0,1,3.9,0l.87.52a6.26,6.26,0,0,0,3.58.88h.37a6.34,6.34,0,0,0,2.41-.79,1.29,1.29,0,0,0,.21-.07l.88-.52a3.71,3.71,0,0,1,3.89,0l.87.52a6.37,6.37,0,0,0,3,.89h.07a6.27,6.27,0,0,0,1.06-.05c.21,0,.4-.08.6-.12l.29-.07a6.28,6.28,0,0,0,1.57-.65h0l.87-.52a3.73,3.73,0,0,1,3.9,0l.87.52a6.3,6.3,0,0,0,3.27.9h.06a6.28,6.28,0,0,0,3.18-.86l2.39-1.06.14-.1.19-.08ZM18,57.48h8.55a1.22,1.22,0,1,0,0-2.44H18a1.22,1.22,0,0,0,0,2.44Zm0,4.89H29a1.23,1.23,0,0,0,0-2.45H18a1.23,1.23,0,0,0,0,2.45Zm13.44,2.44H18a1.22,1.22,0,1,0,0,2.44H31.46a1.22,1.22,0,1,0,0-2.44Zm7.33,0H36.35a1.22,1.22,0,1,0,0,2.44h2.44a1.22,1.22,0,0,0,0-2.44Z"/><rect class="cls-2" width="76.86" height="76.86"/></g></g></svg>