<svg xmlns="http://www.w3.org/2000/svg" viewBox="0 0 76.86 76.86"><defs><style>.cls-1{fill:#00b1cb;}.cls-2{fill:none;}</style></defs><title>Asset 4</title><g id="Layer_2" data-name="Layer 2"><g id="Layer_1-2" data-name="Layer 1"><path class="cls-1" d="M45,64.38H31.41a1.17,1.17,0,1,0,0,2.34H45a1.17,1.17,0,1,0,0-2.34Z"/><path class="cls-1" d="M43.52,69H32.93a1.17,1.17,0,1,0,0,2.34H43.52a1.17,1.17,0,0,0,0-2.34Z"/><path class="cls-1" d="M38.22,7.91A1.18,1.18,0,0,0,39.4,6.73V2.19a1.18,1.18,0,0,0-2.35,0V6.73A1.18,1.18,0,0,0,38.22,7.91Z"/><path class="cls-1" d="M46.62,32s0-.09,0-.13,0,0,0,0a.86.86,0,0,0-.13-.23c0-.05,0-.1-.07-.14a1.3,1.3,0,0,0-.31-.26s0,0,0,0h0a1,1,0,0,0-.42-.13h0a1.23,1.23,0,0,0-.27,0l-.18,0h0A14.59,14.59,0,0,0,43,32l-.07,0c-1,.51-1.86.91-2.49.4L39,31.3l-.09,0a1.27,1.27,0,0,0-.23-.12.64.64,0,0,0-.18-.06,1.1,1.1,0,0,0-.25,0,.68.68,0,0,0-.2,0,1,1,0,0,0-.23.07,1.18,1.18,0,0,0-.19.1s-.07,0-.1.05l-1.44,1.18c-.63.51-1.48.11-2.5-.4l-.06,0a14.59,14.59,0,0,0-2.17-.94h-.15a1.34,1.34,0,0,0-.34,0h0a1.17,1.17,0,0,0-.4.13h0l-.09.08a1,1,0,0,0-.24.21,1.08,1.08,0,0,0-.11.18,1.74,1.74,0,0,0-.1.19s0,0,0,0a1.64,1.64,0,0,0,0,.22.9.9,0,0,0,0,.23s0,.08,0,.12a1.41,1.41,0,0,0,.1.31v0a34.47,34.47,0,0,1,4,10.36,62.32,62.32,0,0,1,.83,12,1.17,1.17,0,1,0,2.33,0,63.76,63.76,0,0,0-.86-12.49,33.6,33.6,0,0,0-2.73-8,3.42,3.42,0,0,0,4-.36l.7-.57.71.57a3.37,3.37,0,0,0,4,.36,34,34,0,0,0-2.72,8,63.76,63.76,0,0,0-.86,12.49,1.17,1.17,0,1,0,2.33,0,61.53,61.53,0,0,1,.83-12,34.57,34.57,0,0,1,4-10.36h0a1.23,1.23,0,0,0,.14-.42h0A1.23,1.23,0,0,0,46.62,32Z"/><path class="cls-1" d="M46.2,14.71a20.89,20.89,0,0,0-15.94,0h0A20.89,20.89,0,0,0,19,26L19,26a20.8,20.8,0,0,0,2.43,20.26,69.07,69.07,0,0,0,5.33,6.44h0c2.42,2.66,3.51,3.85,3.51,7.76a1.18,1.18,0,0,0,1.18,1.17H45.13a1.18,1.18,0,0,0,1.18-1.17c0-3.95,1.06-5.13,3.5-7.83a72.64,72.64,0,0,0,5.25-6.37,20.63,20.63,0,0,0,3-5.83A20.87,20.87,0,0,0,46.2,14.71Zm9.62,25a18.27,18.27,0,0,1-2.65,5.16,68.78,68.78,0,0,1-5.09,6.19C45.46,54,44.19,55.39,44,59.3H32.56c-.21-3.88-1.5-5.31-4.11-8.16h0a70.39,70.39,0,0,1-5.18-6.25,19,19,0,0,1-2.65-5.17,18.69,18.69,0,0,1-.9-5.74,18.47,18.47,0,0,1,1.4-7.08l0-.06a18.63,18.63,0,0,1,10-10h0A18.52,18.52,0,0,1,55.82,39.73Z"/><path class="cls-1" d="M42,73.68H34.44a1.17,1.17,0,1,0,0,2.34H42a1.17,1.17,0,0,0,0-2.34Z"/><path class="cls-1" d="M51,11.33a1.17,1.17,0,0,0,1.59-.43L54.87,7a1.16,1.16,0,1,0-2-1.16L50.58,9.73A1.17,1.17,0,0,0,51,11.33Z"/><path class="cls-1" d="M23.85,10.9a1.17,1.17,0,1,0,2-1.17L23.6,5.8a1.16,1.16,0,0,0-2,1.16Z"/><path class="cls-1" d="M15.66,19.09l-3.94-2.27a1.16,1.16,0,1,0-1.16,2l3.93,2.27a1.17,1.17,0,1,0,1.17-2Z"/><path class="cls-1" d="M66.32,17.25a1.17,1.17,0,0,0-1.6-.43l-3.93,2.27a1.16,1.16,0,1,0,1.16,2l3.94-2.27A1.17,1.17,0,0,0,66.32,17.25Z"/><path class="cls-1" d="M25.28,36.1A13.25,13.25,0,0,1,25,33.47a1.18,1.18,0,0,0-2.35,0A15.29,15.29,0,0,0,23,36.56a15.14,15.14,0,0,0,.91,3,1.17,1.17,0,0,0,2.15-.91A12.59,12.59,0,0,1,25.28,36.1Z"/><path class="cls-1" d="M30.85,22.51a13.46,13.46,0,0,1,2.23-1.22,13.25,13.25,0,0,1,5.14-1,1.17,1.17,0,1,0,0-2.34,15.35,15.35,0,0,0-3.09.31,14.93,14.93,0,0,0-3,.91,16.56,16.56,0,0,0-2.63,1.42h0a15.9,15.9,0,0,0-2.31,1.9,16.4,16.4,0,0,0-1.91,2.31h0a15,15,0,0,0-1.42,2.62,1.17,1.17,0,1,0,2.15.91,13.34,13.34,0,0,1,1.21-2.23h0a13.25,13.25,0,0,1,1.63-2,13,13,0,0,1,2-1.62Z"/><rect class="cls-2" width="76.86" height="76.86"/></g></g></svg>