<svg xmlns="http://www.w3.org/2000/svg" viewBox="0 0 76.86 76.86"><defs><style>.cls-1{fill:#00b1cb;}.cls-2{fill:none;}</style></defs><title>Asset 2</title><g id="Layer_2" data-name="Layer 2"><g id="Layer_1-2" data-name="Layer 1"><path class="cls-1" d="M13.93,47.05a4.93,4.93,0,0,0,5.53-5.53,4.88,4.88,0,0,0-.64-1.83l8-7.94a4.75,4.75,0,0,0,1.82.63,4.91,4.91,0,0,0,3.12-.63l3.66,3.64a5,5,0,1,0,8.51,0L61,18.28a4.77,4.77,0,0,0,1.84.65,4.94,4.94,0,1,0-4.25-4.26,4.82,4.82,0,0,0,.62,1.8L42.08,33.63A4.61,4.61,0,0,0,40.26,33a5,5,0,0,0-3.09.62L33.5,30a4.85,4.85,0,0,0,.62-3.1,4.93,4.93,0,1,0-9.78,1.28A4.75,4.75,0,0,0,25,30L17,37.9a4.88,4.88,0,0,0-1.83-.64,4.94,4.94,0,1,0-1.27,9.79ZM61.12,13.57a2.4,2.4,0,1,1,2.82,2.82A2.41,2.41,0,0,1,61.12,13.57ZM42,38.35a2.4,2.4,0,1,1-2.83-2.82A2.42,2.42,0,0,1,42,38.35ZM26.87,27a2.4,2.4,0,1,1,2.83,2.83A2.42,2.42,0,0,1,26.87,27ZM12.21,41.69A2.4,2.4,0,1,1,15,44.51,2.42,2.42,0,0,1,12.21,41.69Z"/><path class="cls-1" d="M67.1,65.34H64.74V31.2a1.27,1.27,0,1,0-2.53,0V65.34H41.51V49.55a1.27,1.27,0,1,0-2.53,0V65.34H30.5V42.19a1.27,1.27,0,0,0-2.54,0V65.34H15.83V53.21a1.27,1.27,0,0,0-2.53,0V65.34H10.94a1.27,1.27,0,0,0,0,2.54H67.1a1.27,1.27,0,1,0,0-2.54Z"/><rect class="cls-2" width="76.86" height="76.86"/></g></g></svg>