<svg xmlns="http://www.w3.org/2000/svg" viewBox="0 0 76.86 76.86"><defs><style>.cls-1{fill:#fff;}.cls-2{fill:none;}</style></defs><title>Asset 7</title><g id="Layer_2" data-name="Layer 2"><g id="Layer_1-2" data-name="Layer 1"><path class="cls-1" d="M57.36,22.15l-3.65-4.58v-4h.8a2.78,2.78,0,0,0,2.77-2.78V6.74A2.77,2.77,0,0,0,54.51,4H22.93a2.78,2.78,0,0,0-2.78,2.77v4.1a2.79,2.79,0,0,0,2.78,2.78h.8v4l-3.65,4.58a9.21,9.21,0,0,0-2,5.72V52.66a1.07,1.07,0,0,0,2.14,0V30.46h37v29h-37V56.18h0a1.07,1.07,0,1,0-2.14,0h0v10.3a6.42,6.42,0,0,0,6.41,6.41H53a6.42,6.42,0,0,0,6.41-6.41V27.87A9.21,9.21,0,0,0,57.36,22.15Zm-.15,44.33A4.26,4.26,0,0,1,53,70.74H24.49a4.27,4.27,0,0,1-4.27-4.26V61.57h37v4.91Zm-34.28-55a.63.63,0,0,1-.63-.63V9.51H32.94a1.07,1.07,0,1,0,0-2.14H22.3V6.74a.63.63,0,0,1,.63-.63H54.51a.64.64,0,0,1,.63.63v4.1a.63.63,0,0,1-.63.63H22.93ZM57.21,28.31h-37v-.44a7.06,7.06,0,0,1,1.54-4.38l3.88-4.88a1.09,1.09,0,0,0,.23-.67V13.62H51.56v4.32a1.08,1.08,0,0,0,.24.67l3.88,4.88a7.05,7.05,0,0,1,1.53,4.38v.44ZM46.14,53.12c-.73-3.29-3.9-7.89-7.39-7.89h-.06c-3.49,0-6.66,4.6-7.39,7.89C30.66,56,32,57,32.6,57.26a6.11,6.11,0,0,0,4.12.29,7.71,7.71,0,0,1,2-.25h.06a7.71,7.71,0,0,1,2,.25,7.09,7.09,0,0,0,1.74.22h0a5.59,5.59,0,0,0,2.38-.51C45.44,57,46.78,56,46.14,53.12Zm-2.21,2.19a4,4,0,0,1-2.68.16,10.08,10.08,0,0,0-2.5-.32h-.06a10.08,10.08,0,0,0-2.5.32,4,4,0,0,1-2.68-.16c-.22-.1-.33-.74-.11-1.73.62-2.79,3.18-6.2,5.29-6.2h.06c2.11,0,4.67,3.41,5.29,6.2C44.26,54.57,44.15,55.21,43.93,55.31ZM37.76,36.78a4.69,4.69,0,0,0-8.56,3.85c.86,1.9,3.71,4.77,6.06,4.77h0a2.82,2.82,0,0,0,1.13-.23C39.05,44,38.64,38.76,37.76,36.78Zm-2.25,6.43a.62.62,0,0,1-.25,0h0c-1.22,0-3.45-2-4.1-3.5a2.56,2.56,0,0,1,2.32-3.59,2.55,2.55,0,0,1,2.32,1.5C36.59,39.43,36.42,42.8,35.51,43.21Zm-3.78,2.68A8.8,8.8,0,0,0,29.2,43a4.17,4.17,0,0,0-6.39,4.3,4.1,4.1,0,0,0,1.78,2.65,9,9,0,0,0,4.48,1.24h0a3.33,3.33,0,0,0,3-1.27C32.73,48.91,32.61,47.49,31.73,45.89Zm-1.44,2.82c-.08.12-.42.32-1.22.32h0a6.91,6.91,0,0,1-3.29-.89,2,2,0,0,1,1.12-3.71,2,2,0,0,1,1.12.34,7,7,0,0,1,1.83,2.16C30.39,47.91,30.41,48.53,30.29,48.71ZM48.34,37.05a4.62,4.62,0,0,0-2.46-2.62,4.7,4.7,0,0,0-6.2,2.35c-.89,2-1.29,7.19,1.37,8.39a2.8,2.8,0,0,0,1.12.23c2.36,0,5.21-2.87,6.07-4.77A4.63,4.63,0,0,0,48.34,37.05Zm-2.06,2.7c-.65,1.45-2.89,3.5-4.11,3.5a.61.61,0,0,1-.24,0c-.91-.41-1.09-3.78-.29-5.55A2.55,2.55,0,0,1,44,36.16a2.55,2.55,0,0,1,2.32,3.59ZM54,44.15a4.17,4.17,0,0,0-3.48-1.86,4.22,4.22,0,0,0-2.31.69,8.9,8.9,0,0,0-2.52,2.91c-.88,1.6-1,3-.35,4a3.31,3.31,0,0,0,3,1.27,9,9,0,0,0,4.48-1.24,4.1,4.1,0,0,0,1.78-2.65A4.17,4.17,0,0,0,54,44.15Zm-1.5,2.71a2,2,0,0,1-.86,1.28,6.91,6.91,0,0,1-3.29.89c-.8,0-1.15-.2-1.22-.32s-.1-.8.44-1.78a6.73,6.73,0,0,1,1.83-2.16,2,2,0,0,1,2.81.57A2,2,0,0,1,52.52,46.86ZM39.81,7.37H36.45a1.07,1.07,0,1,0,0,2.14h3.36a1.07,1.07,0,1,0,0-2.14Z"/><rect class="cls-2" width="76.86" height="76.86"/></g></g></svg>