<svg xmlns="http://www.w3.org/2000/svg" viewBox="0 0 76.86 76.86"><defs><style>.cls-1{fill:#fff;}.cls-2{fill:none;}</style></defs><title>Asset 6</title><g id="Layer_2" data-name="Layer 2"><g id="Layer_1-2" data-name="Layer 1"><path class="cls-1" d="M46.26,50.24a1,1,0,0,0-.08-.25,1,1,0,0,0-.12-.23,1.12,1.12,0,0,0-.17-.21,1.56,1.56,0,0,0-.2-.16,1.71,1.71,0,0,0-.23-.13l-.25-.07a1.14,1.14,0,0,0-.52,0l-.25.07a1.71,1.71,0,0,0-.23.13,1.56,1.56,0,0,0-.2.16,1.73,1.73,0,0,0-.17.21,1,1,0,0,0-.12.23,1.83,1.83,0,0,0-.08.25,2.11,2.11,0,0,0,0,.26,2.28,2.28,0,0,0,0,.26,2.41,2.41,0,0,0,.08.25,1,1,0,0,0,.12.23,1.63,1.63,0,0,0,.17.2l.2.17a1,1,0,0,0,.23.12l.25.08.26,0,.26,0,.25-.08a1,1,0,0,0,.23-.12l.2-.17a1.06,1.06,0,0,0,.17-.2,1,1,0,0,0,.12-.23,1.21,1.21,0,0,0,.08-.25,1.15,1.15,0,0,0,0-.26A1.09,1.09,0,0,0,46.26,50.24ZM45,54.54a1.33,1.33,0,0,0-1.33,1.34v6.33a8.13,8.13,0,0,1-16.25,0V54.87h2.06a1.33,1.33,0,0,0,1.34-1.33V43.81A19,19,0,0,0,45.05,25.4V9.08a1.34,1.34,0,0,0-1.33-1.34H40V6a1.33,1.33,0,0,0-1.33-1.34H32.8a4.94,4.94,0,0,0,0,9.88h5.88A1.33,1.33,0,0,0,40,13.2V10.41h2.37V18A16.33,16.33,0,0,1,9.72,18V10.41h2.37V13.2a1.34,1.34,0,0,0,1.34,1.33H19.3a4.94,4.94,0,0,0,0-9.88H13.43A1.34,1.34,0,0,0,12.09,6V7.74H8.39A1.34,1.34,0,0,0,7.05,9.08V25.4A19,19,0,0,0,21.34,43.81v9.73a1.32,1.32,0,0,0,1.33,1.33h2v7.34a10.8,10.8,0,0,0,21.59,0V55.88A1.34,1.34,0,0,0,45,54.54ZM37.34,11.86H32.8a2.27,2.27,0,0,1,0-4.54h4.54ZM14.76,7.32H19.3a2.27,2.27,0,0,1,0,4.54H14.76Zm9.12,34.27-.2,0-.16,0-.23,0-.16,0-.25,0-.13,0-.37-.09h-.07L22,41.22l-.14,0-.23-.07-.16,0L21.26,41,21.1,41l-.2-.06-.17-.06-.19-.07-.17-.06-.19-.07L20,40.58l-.19-.08-.16-.07-.2-.09-.15-.06L19,40.14l-.17-.08-.21-.1-.15-.08-.18-.1-.16-.09L18,39.6l-.17-.09-.16-.1-.16-.1-.16-.09-.16-.11L17,39l-.16-.1-.15-.11-.16-.11-.14-.1-.16-.12-.13-.1-.3-.24L15.7,38l-.15-.13-.13-.11-.15-.13-.13-.11L15,37.4l-.12-.11-.15-.14L14.6,37l-.14-.14-.12-.13a.93.93,0,0,1-.14-.14l-.12-.12-.14-.15-.1-.13c-.17-.19-.34-.38-.5-.58a1.47,1.47,0,0,0-.1-.13,1.83,1.83,0,0,0-.13-.16l-.1-.14-.12-.16-.1-.14-.12-.16-.09-.14-.12-.17-.09-.14-.11-.17L12.17,34s-.07-.11-.11-.17L12,33.66l-.1-.17-.09-.16-.09-.17-.17-.31a1.19,1.19,0,0,0-.08-.16,1.42,1.42,0,0,1-.08-.18l-.08-.16-.09-.18c0-.06,0-.11-.07-.17L11,31.82c0-.05,0-.11-.07-.17l-.07-.18a.87.87,0,0,1-.07-.17,1.07,1.07,0,0,1-.07-.19L10.7,31a1.59,1.59,0,0,1-.07-.2l-.06-.16c0-.07-.05-.14-.07-.21s0-.1-.05-.15a2.76,2.76,0,0,0-.08-.27l0-.1c0-.12-.06-.24-.1-.37s0-.07,0-.11a2.5,2.5,0,0,1-.07-.26l0-.14c0-.08,0-.16,0-.24l0-.15c0-.08,0-.16,0-.23s0-.11,0-.16a.5.5,0,0,1,0-.12,19,19,0,0,0,32.21,0s0,.08,0,.12l0,.16c0,.08,0,.15,0,.23l0,.15L42,29s0,.08,0,.12-.05.21-.08.31a.19.19,0,0,1,0,.07c0,.13-.06.25-.1.38h0c0,.12-.07.24-.11.36l0,.09-.09.27a.56.56,0,0,1,0,.12,2.25,2.25,0,0,1-.08.24c0,.05,0,.09,0,.13l-.09.24-.05.12-.09.23a.61.61,0,0,0-.05.12L41,32a1.17,1.17,0,0,1,0,.11l-.12.26,0,.08-.16.34h0c-.12.23-.24.46-.37.68l0,.07-.15.26a.41.41,0,0,0-.05.09l-.15.23-.06.1-.15.22-.06.1-.16.22-.06.09-.16.22-.06.08a2.35,2.35,0,0,0-.19.25l0,.05c-.24.3-.49.59-.74.88l0,.05-.21.22-.07.08-.19.19-.08.08c-.07.06-.13.13-.19.19l-.09.08-.19.18-.09.08-.2.18-.08.07-.23.19-.06,0c-.19.16-.4.32-.6.47h0l-.29.22-.08,0-.23.16-.1.06-.22.15-.1.07-.22.13-.11.07-.22.13-.11.06-.23.13-.1.05-.25.14-.08,0-.69.33-.07,0-.28.13-.11,0-.24.1-.13.05-.23.09-.14.05-.22.08-.14,0L31,41l-.14,0-.23.07-.14,0-.26.07-.11,0-.37.09h0l-.38.09-.11,0-.27,0-.15,0-.24,0-.16,0-.2,0H28l-.15,0-.23,0h-.09a17,17,0,0,1-3,0h-.1l-.22,0-.15,0h-.19ZM24,52.2V44.29h0l.29,0h.2l.36,0H25l.48,0h1.06l.48,0h.14l.36,0h.2l.28,0h.06V52.2Zm37.75,1-.08-10.55a9,9,0,0,0-18.06.06v2.59a1.34,1.34,0,1,0,2.67,0V42.7a6.36,6.36,0,0,1,12.72,0l.08,10.53a10,10,0,1,0,2.67,0ZM60.43,70.33a7.28,7.28,0,1,1,7.28-7.28A7.29,7.29,0,0,1,60.43,70.33Zm0-12.46a5.19,5.19,0,1,0,5.19,5.18A5.18,5.18,0,0,0,60.43,57.87Zm0,7.7A2.52,2.52,0,1,1,63,63.05,2.52,2.52,0,0,1,60.43,65.57Z"/><rect class="cls-2" width="76.86" height="76.86"/></g></g></svg>