<svg xmlns="http://www.w3.org/2000/svg" viewBox="0 0 28.05 34.95"><defs><style>.cls-1{fill:#39b54a;}.cls-2{fill:#fff;}</style></defs><title>Asset 2</title><g id="Layer_2" data-name="Layer 2"><g id="Layer_1-2" data-name="Layer 1"><path class="cls-1" d="M3.53,0h14l10.5,10.5v21A3.25,3.25,0,0,1,27,33.92a3.44,3.44,0,0,1-2.46,1h-21a3.44,3.44,0,0,1-2.46-1A3.25,3.25,0,0,1,0,31.5L.08,3.45A3.31,3.31,0,0,1,1.11,1,3.31,3.31,0,0,1,3.53,0ZM15.75,12.22h9.68l-9.68-9.6Z"/><path class="cls-2" d="M11.31,24.93H9.18L7.67,22.7,6.16,24.93H4.09l2.5-3.58L4.25,17.93H6.32l1.35,2,1.35-2h2.09L8.8,21.27Z"/><path class="cls-2" d="M17,23.45v1.49H12.28v-7h1.78v5.51Z"/><path class="cls-2" d="M22.25,18.06a4.68,4.68,0,0,1,1.28.57L22.85,20a6,6,0,0,0-1.18-.53,3.57,3.57,0,0,0-1.06-.2,1.07,1.07,0,0,0-.56.13.42.42,0,0,0-.21.38.55.55,0,0,0,.33.51,5.48,5.48,0,0,0,1,.38,9.08,9.08,0,0,1,1.2.42,2.18,2.18,0,0,1,.81.63,1.72,1.72,0,0,1,.34,1.12A1.86,1.86,0,0,1,23.18,24a2.25,2.25,0,0,1-1,.73,4,4,0,0,1-1.43.24,5.13,5.13,0,0,1-1.72-.3,4.86,4.86,0,0,1-1.48-.82l.69-1.37a4.52,4.52,0,0,0,1.25.75,3.42,3.42,0,0,0,1.28.3,1.25,1.25,0,0,0,.67-.15.51.51,0,0,0,.24-.46.56.56,0,0,0-.34-.52,5.42,5.42,0,0,0-1-.37,9.76,9.76,0,0,1-1.18-.4,2.08,2.08,0,0,1-.8-.61A1.65,1.65,0,0,1,18,20a1.84,1.84,0,0,1,.34-1.11,2.22,2.22,0,0,1,1-.74,3.83,3.83,0,0,1,1.46-.26A5.32,5.32,0,0,1,22.25,18.06Z"/></g></g></svg>